<?xml version="1.0" encoding="UTF-8" standalone="no"?>
<!-- Created with Inkscape (http://www.inkscape.org/) -->

<svg
   width="32mm"
   height="32.000004mm"
   viewBox="0 0 32 32.000004"
   version="1.1"
   id="svg1"
   xml:space="preserve"
   sodipodi:docname="max-active.svg"
   inkscape:export-filename="../max-active.svg"
   inkscape:export-xdpi="96"
   inkscape:export-ydpi="96"
   inkscape:version="1.4.3 (0d15f75042, 2025-12-25)"
   xmlns:inkscape="http://www.inkscape.org/namespaces/inkscape"
   xmlns:sodipodi="http://sodipodi.sourceforge.net/DTD/sodipodi-0.dtd"
   xmlns:xlink="http://www.w3.org/1999/xlink"
   xmlns="http://www.w3.org/2000/svg"
   xmlns:svg="http://www.w3.org/2000/svg"><sodipodi:namedview
     id="namedview1"
     pagecolor="#ffffff"
     bordercolor="#000000"
     borderopacity="0.25"
     inkscape:showpageshadow="2"
     inkscape:pageopacity="0.0"
     inkscape:pagecheckerboard="0"
     inkscape:deskcolor="#d1d1d1"
     inkscape:document-units="mm"
     inkscape:zoom="7.6729158"
     inkscape:cx="66.923711"
     inkscape:cy="59.625312"
     inkscape:window-width="1920"
     inkscape:window-height="1200"
     inkscape:window-x="0"
     inkscape:window-y="0"
     inkscape:window-maximized="1"
     inkscape:current-layer="layer1-5"><inkscape:page
       x="0"
       y="0"
       width="32"
       height="32.000004"
       id="page2"
       margin="0"
       bleed="0" /></sodipodi:namedview><defs
     id="defs1"><linearGradient
       id="linearGradient8"
       inkscape:collect="always"><stop
         style="stop-color:#ffffff;stop-opacity:1;"
         offset="0"
         id="stop9" /><stop
         style="stop-color:#000000;stop-opacity:0;"
         offset="1"
         id="stop10" /></linearGradient><linearGradient
       id="linearGradient7"
       inkscape:collect="always"><stop
         style="stop-color:#ffffff;stop-opacity:0.66666669;"
         offset="0"
         id="stop7" /><stop
         style="stop-color:#ffffff;stop-opacity:0;"
         offset="1"
         id="stop8" /></linearGradient><radialGradient
       inkscape:collect="always"
       xlink:href="#linearGradient7"
       id="radialGradient8"
       cx="16"
       cy="30.000002"
       fx="16"
       fy="30.000002"
       r="14"
       gradientUnits="userSpaceOnUse" /><linearGradient
       inkscape:collect="always"
       xlink:href="#linearGradient8"
       id="linearGradient10"
       x1="16"
       y1="-2.3793087"
       x2="16"
       y2="23.620691"
       gradientUnits="userSpaceOnUse" /></defs><g
     id="layer1"><rect
       style="fill:#ffffff;fill-opacity:1;stroke-width:0.231509"
       id="rect1-3"
       width="28"
       height="28"
       x="2"
       y="2"
       rx="6" /><g
       id="layer1-6"><rect
         style="fill:#ffffff;fill-opacity:1;stroke-width:0.231509"
         id="rect1-3-1"
         width="28"
         height="28"
         x="2"
         y="2"
         rx="6" /><g
         id="layer1-2"><g
           id="layer1-5"><rect
             style="fill:#a9a9a9;fill-opacity:1;stroke-width:0.264583"
             id="rect1"
             width="32"
             height="32"
             x="0"
             y="0"
             rx="8" /><rect
             style="fill:#666666;fill-opacity:1;stroke-width:0.231509"
             id="rect1-3-4"
             width="28"
             height="28"
             x="2"
             y="2"
             rx="6" /><rect
             style="opacity:0.886496;fill:url(#radialGradient8);fill-opacity:1;stroke-width:0.0933333"
             id="rect7"
             width="28"
             height="28"
             x="2"
             y="2"
             rx="6" /><rect
             style="opacity:0.886496;fill:url(#linearGradient10);fill-opacity:1;stroke-width:0.0896552"
             id="rect8"
             width="26"
             height="15.241382"
             x="3"
             y="3"
             rx="5.3793101" /></g></g></g><g
       style="fill:#ffffff;fill-opacity:1"
       id="g6"
       transform="matrix(0.025,0,0,0.025,-33.598983,-13.061882)" /><g
       style="fill:#ffffff"
       id="g20"
       transform="matrix(0.02447552,0,0,0.02447552,4.2517491,27.748248)"><path
         d="m 480,-392 -180,180 q -18,18 -44,18 -26,0 -44,-18 -18,-18 -18,-44 0,-26 18,-44 L 392,-480 212,-660 q -18,-18 -18,-44 0,-26 18,-44 18,-18 44,-18 26,0 44,18 l 180,180 180,-180 q 18,-18 44,-18 26,0 44,18 18,18 18,44 0,26 -18,44 l -180,180 180,180 q 18,18 18,44 0,26 -18,44 -18,18 -44,18 -26,0 -44,-18 z"
         id="path1-5" /></g></g></svg>
