<?xml version="1.0" encoding="UTF-8" standalone="no"?>
<!-- Created with Inkscape (http://www.inkscape.org/) -->

<svg
   width="32mm"
   height="32.000004mm"
   viewBox="0 0 32 32.000004"
   version="1.1"
   id="svg1"
   xml:space="preserve"
   xmlns="http://www.w3.org/2000/svg"
   xmlns:svg="http://www.w3.org/2000/svg"><defs
     id="defs1" /><g
     id="layer1"><rect
       style="fill:#ffffff;fill-opacity:1;stroke-width:0.231509"
       id="rect1-3"
       width="28"
       height="28"
       x="2"
       y="2"
       rx="6" /><g
       id="layer1-6"><rect
         style="fill:#ffffff;fill-opacity:1;stroke-width:0.231509"
         id="rect1-3-1"
         width="28"
         height="28"
         x="2"
         y="2"
         rx="6" /><g
         id="layer1-2"><g
           id="layer1-5"><rect
             style="fill:#ffffff;fill-opacity:1;stroke-width:0.231509"
             id="rect1-3-4"
             width="28"
             height="28"
             x="2"
             y="2"
             rx="6" /><g
             id="layer1-7"><rect
               style="fill:#ffffff;fill-opacity:1;stroke-width:0.231509"
               id="rect1-3-44"
               width="28"
               height="28"
               x="2"
               y="2"
               rx="6" /><g
               id="layer1-6-3"><rect
                 style="fill:#ffffff;fill-opacity:1;stroke-width:0.231509"
                 id="rect1-3-1-0"
                 width="28"
                 height="28"
                 x="2"
                 y="2"
                 rx="6" /><g
                 id="layer1-2-7"><g
                   id="layer1-5-8"><rect
                     style="fill:#a9a9a9;fill-opacity:1;stroke-width:0.264583"
                     id="rect1"
                     width="32"
                     height="32"
                     x="0"
                     y="0"
                     rx="8" /><rect
                     style="fill:#ffffff;fill-opacity:1;stroke-width:0.231509"
                     id="rect1-3-4-6"
                     width="28"
                     height="28"
                     x="2"
                     y="2"
                     rx="6" /><g
                     style="fill:#666666"
                     id="g6"
                     transform="matrix(0.03041825,0,0,0.03041825,1.3992398,30.60076)"><path
                       d="m 480,-424 -196,196 q -11,11 -28,11 -17,0 -28,-11 -11,-11 -11,-28 0,-17 11,-28 L 424,-480 228,-676 q -11,-11 -11,-28 0,-17 11,-28 11,-11 28,-11 17,0 28,11 l 196,196 196,-196 q 11,-11 28,-11 17,0 28,11 11,11 11,28 0,17 -11,28 l -196,196 196,196 q 11,11 11,28 0,17 -11,28 -11,11 -28,11 -17,0 -28,-11 z"
                       id="path1" /></g></g></g></g></g></g></g></g></g></svg>
