<?xml version="1.0" encoding="UTF-8" standalone="no"?>
<!-- Created with Inkscape (http://www.inkscape.org/) -->

<svg
   width="31.999998mm"
   height="31.999998mm"
   viewBox="0 0 31.999999 31.999999"
   version="1.1"
   id="svg1"
   xml:space="preserve"
   xmlns:xlink="http://www.w3.org/1999/xlink"
   xmlns="http://www.w3.org/2000/svg"
   xmlns:svg="http://www.w3.org/2000/svg"><defs
     id="defs1"><linearGradient
       id="linearGradient1"><stop
         style="stop-color:#ffffff;stop-opacity:1;"
         offset="0"
         id="stop1" /><stop
         style="stop-color:#964c67;stop-opacity:1;"
         offset="0.5"
         id="stop5" /><stop
         style="stop-color:#532d46;stop-opacity:1;"
         offset="0.75"
         id="stop6" /><stop
         style="stop-color:#e892b0;stop-opacity:1;"
         offset="1"
         id="stop2" /></linearGradient><linearGradient
       id="linearGradient8"><stop
         style="stop-color:#ffffff;stop-opacity:0.13333334;"
         offset="0"
         id="stop9" /><stop
         style="stop-color:#ffffff;stop-opacity:0;"
         offset="1"
         id="stop10" /></linearGradient><linearGradient
       id="linearGradient7"><stop
         style="stop-color:#ffffff;stop-opacity:0.13333334;"
         offset="0"
         id="stop7" /><stop
         style="stop-color:#ffffff;stop-opacity:0;"
         offset="1"
         id="stop8" /></linearGradient><radialGradient
       xlink:href="#linearGradient7"
       id="radialGradient8"
       cx="16"
       cy="30.000002"
       fx="16"
       fy="30.000002"
       r="14"
       gradientUnits="userSpaceOnUse"
       gradientTransform="matrix(1.0802874,0,0,1.0802874,-1.284598,-1.284598)" /><linearGradient
       xlink:href="#linearGradient8"
       id="linearGradient10"
       x1="16"
       y1="-2.3793087"
       x2="16"
       y2="23.620691"
       gradientUnits="userSpaceOnUse"
       gradientTransform="matrix(1.1633864,0,0,1.1633864,-2.6141825,-2.6141825)" /><radialGradient
       xlink:href="#linearGradient3"
       id="radialGradient4"
       cx="15.878379"
       cy="16.094595"
       fx="15.878379"
       fy="16.094595"
       r="13.5"
       gradientUnits="userSpaceOnUse"
       gradientTransform="matrix(0.88888886,0,0,0.22222222,1.8858859,1.4234233)" /><linearGradient
       id="linearGradient3"><stop
         style="stop-color:#ffffff;stop-opacity:0.13333334;"
         offset="0"
         id="stop3" /><stop
         style="stop-color:#ffffff;stop-opacity:0;"
         offset="1"
         id="stop4" /></linearGradient><linearGradient
       xlink:href="#linearGradient1"
       id="linearGradient2"
       x1="16"
       y1="0.87597668"
       x2="16"
       y2="31.124023"
       gradientUnits="userSpaceOnUse" /></defs><g
     id="layer1"
     transform="matrix(0.99179958,0,0,0.99179958,0.13120665,0.13120665)"><g
       id="layer1-6"><g
         id="layer1-2"><g
           id="layer1-5"><rect
             style="fill:#808080;fill-opacity:1;stroke:#666666;stroke-width:0.264583;stroke-opacity:1"
             id="rect1"
             width="32"
             height="32"
             x="0"
             y="0"
             rx="4" /><rect
             style="fill:url(#linearGradient2);fill-opacity:1;stroke-width:0.250096"
             id="rect1-3-4"
             width="30.248047"
             height="30.248047"
             x="0.87597674"
             y="0.87597674"
             rx="3.0248046" /><rect
             style="opacity:0.886496;fill:url(#radialGradient8);fill-opacity:1;stroke-width:0.100827"
             id="rect7"
             width="30.248047"
             height="30.248047"
             x="0.87597674"
             y="0.87597674"
             rx="2.1605747" /><rect
             style="opacity:0.886496;fill:url(#linearGradient10);fill-opacity:1;stroke-width:0.104303"
             id="rect8"
             width="30.248047"
             height="17.731617"
             x="0.87597674"
             y="0.87597674"
             rx="3.0248046" /></g></g></g><g
       style="fill:#ffffff"
       id="g22"
       transform="matrix(0.02447552,0,0,0.02447552,4.2517491,27.748248)"><path
         d="m 480,-392 -180,180 q -18,18 -44,18 -26,0 -44,-18 -18,-18 -18,-44 0,-26 18,-44 L 392,-480 212,-660 q -18,-18 -18,-44 0,-26 18,-44 18,-18 44,-18 26,0 44,18 l 180,180 180,-180 q 18,-18 44,-18 26,0 44,18 18,18 18,44 0,26 -18,44 l -180,180 180,180 q 18,18 18,44 0,26 -18,44 -18,18 -44,18 -26,0 -44,-18 z"
         id="path1-2" /></g><rect
       style="opacity:0.886496;fill:url(#radialGradient4);fill-opacity:1;stroke:none;stroke-width:0.444444"
       id="rect2"
       width="24"
       height="6"
       x="4"
       y="2"
       rx="5.3333335" /></g></svg>
