<?xml version="1.0" encoding="UTF-8" standalone="no"?>
<!-- Created with Inkscape (http://www.inkscape.org/) -->

<svg
   width="32mm"
   height="32.000004mm"
   viewBox="0 0 32 32.000004"
   version="1.1"
   id="svg1"
   xml:space="preserve"
   sodipodi:docname="max-inactive.svg"
   inkscape:export-filename="max-inactive.svg"
   inkscape:export-xdpi="96"
   inkscape:export-ydpi="96"
   inkscape:version="1.4.3 (0d15f75042, 2025-12-25)"
   xmlns:inkscape="http://www.inkscape.org/namespaces/inkscape"
   xmlns:sodipodi="http://sodipodi.sourceforge.net/DTD/sodipodi-0.dtd"
   xmlns="http://www.w3.org/2000/svg"
   xmlns:svg="http://www.w3.org/2000/svg"><sodipodi:namedview
     id="namedview1"
     pagecolor="#ffffff"
     bordercolor="#000000"
     borderopacity="0.25"
     inkscape:showpageshadow="2"
     inkscape:pageopacity="0.0"
     inkscape:pagecheckerboard="0"
     inkscape:deskcolor="#d1d1d1"
     inkscape:document-units="mm"
     inkscape:zoom="7.6729158"
     inkscape:cx="60.472448"
     inkscape:cy="60.472448"
     inkscape:window-width="1920"
     inkscape:window-height="1156"
     inkscape:window-x="0"
     inkscape:window-y="0"
     inkscape:window-maximized="1"
     inkscape:current-layer="g6" /><defs
     id="defs1" /><g
     id="layer1"><rect
       style="fill:#ffffff;fill-opacity:1;stroke-width:0.231509"
       id="rect1-3"
       width="28"
       height="28"
       x="2"
       y="2"
       rx="6" /><g
       id="layer1-6"><rect
         style="fill:#ffffff;fill-opacity:1;stroke-width:0.231509"
         id="rect1-3-1"
         width="28"
         height="28"
         x="2"
         y="2"
         rx="6" /><g
         id="layer1-2"><g
           id="layer1-5"><rect
             style="fill:#a9a9a9;fill-opacity:1;stroke-width:0.264583"
             id="rect1"
             width="32"
             height="32"
             x="0"
             y="0"
             rx="8" /><rect
             style="fill:#ffffff;fill-opacity:1;stroke-width:0.231509"
             id="rect1-3-4"
             width="28"
             height="28"
             x="2"
             y="2"
             rx="6" /><g
             style="fill:#c4c4c4"
             id="g6"
             transform="matrix(0.025,0,0,0.025,4,29.35)"><path
               d="m 454.35,-202.2 q -13.05,-4.5 -22.95,-14.4 l -62.1,-56.7 Q 273.9,-360.6 196.95,-446.55 120,-532.5 120,-636 q 0,-84.6 56.7,-141.3 56.7,-56.7 141.3,-56.7 47.7,0 90,20.25 42.3,20.25 72,55.35 29.7,-35.1 72,-55.35 42.3,-20.25 90,-20.25 84.6,0 141.3,56.7 56.7,56.7 56.7,141.3 0,103.5 -76.5,189.9 -76.5,86.4 -173.7,173.7 l -61.2,55.8 q -9.9,9.9 -22.95,14.4 -13.05,4.5 -25.65,4.5 -12.6,0 -25.65,-4.5 z"
               id="path1"
               style="fill:#c4c3d0;fill-opacity:1;stroke-width:0.9" /></g></g></g></g></g></svg>
