<?xml version="1.0" encoding="UTF-8" standalone="no"?>
<!-- Created with Inkscape (http://www.inkscape.org/) -->

<svg
   width="32mm"
   height="32.000004mm"
   viewBox="0 0 32 32.000004"
   version="1.1"
   id="svg1"
   xml:space="preserve"
   xmlns="http://www.w3.org/2000/svg"
   xmlns:svg="http://www.w3.org/2000/svg"><defs
     id="defs1" /><g
     id="layer1"><rect
       style="fill:#ffffff;fill-opacity:1;stroke-width:0.231509"
       id="rect1-3"
       width="28"
       height="28"
       x="2"
       y="2"
       rx="6" /><g
       id="layer1-6"><rect
         style="fill:#ffffff;fill-opacity:1;stroke-width:0.231509"
         id="rect1-3-1"
         width="28"
         height="28"
         x="2"
         y="2"
         rx="6" /><g
         id="layer1-2"><g
           id="layer1-5"><rect
             style="fill:#a9a9a9;fill-opacity:1;stroke-width:0.264583"
             id="rect1"
             width="32"
             height="32"
             x="0"
             y="0"
             rx="8" /><rect
             style="fill:#ffffff;fill-opacity:1;stroke-width:0.231509"
             id="rect1-3-4"
             width="28"
             height="28"
             x="2"
             y="2"
             rx="6" /><g
             style="fill:#c4c4c4"
             id="g6"
             transform="matrix(0.025,0,0,0.025,4,29.35)"><path
               d="M 451.5,-152 Q 437,-157 426,-168 l -69,-63 Q 251,-328 165.5,-423.5 80,-519 80,-634 q 0,-94 63,-157 63,-63 157,-63 53,0 100,22.5 47,22.5 80,61.5 33,-39 80,-61.5 47,-22.5 100,-22.5 94,0 157,63 63,63 63,157 0,115 -85,211 -85,96 -193,193 l -68,62 q -11,11 -25.5,16 -14.5,5 -28.5,5 -14,0 -28.5,-5 z"
               id="path1"
               style="fill:#666666;fill-opacity:1" /></g></g></g></g></g></svg>
