<?xml version="1.0" encoding="UTF-8" standalone="no"?>
<!-- Created with Inkscape (http://www.inkscape.org/) -->

<svg
   width="32mm"
   height="32.000004mm"
   viewBox="0 0 32 32.000004"
   version="1.1"
   id="svg1"
   xml:space="preserve"
   xmlns:xlink="http://www.w3.org/1999/xlink"
   xmlns="http://www.w3.org/2000/svg"
   xmlns:svg="http://www.w3.org/2000/svg"><defs
     id="defs1"><linearGradient
       id="linearGradient8"><stop
         style="stop-color:#ffffff;stop-opacity:1;"
         offset="0"
         id="stop9" /><stop
         style="stop-color:#a9a9a9;stop-opacity:0;"
         offset="1"
         id="stop10" /></linearGradient><linearGradient
       id="linearGradient7"><stop
         style="stop-color:#ffffff;stop-opacity:0.66666669;"
         offset="0"
         id="stop7" /><stop
         style="stop-color:#ffffff;stop-opacity:0;"
         offset="1"
         id="stop8" /></linearGradient><radialGradient
       xlink:href="#linearGradient7"
       id="radialGradient8"
       cx="16"
       cy="30.000002"
       fx="16"
       fy="30.000002"
       r="14"
       gradientUnits="userSpaceOnUse" /><linearGradient
       xlink:href="#linearGradient8"
       id="linearGradient10"
       x1="16"
       y1="-2.3793087"
       x2="16"
       y2="23.620691"
       gradientUnits="userSpaceOnUse" /></defs><g
     id="layer1"><rect
       style="fill:#ffffff;fill-opacity:1;stroke-width:0.231509"
       id="rect1-3"
       width="28"
       height="28"
       x="2"
       y="2"
       rx="6" /><g
       id="layer1-6"><rect
         style="fill:#ffffff;fill-opacity:1;stroke-width:0.231509"
         id="rect1-3-1"
         width="28"
         height="28"
         x="2"
         y="2"
         rx="6" /><g
         id="layer1-2"><g
           id="layer1-5"><rect
             style="fill:#a9a9a9;fill-opacity:1;stroke-width:0.264583"
             id="rect1"
             width="32"
             height="32"
             x="0"
             y="0"
             rx="8" /><rect
             style="fill:#c4cff4;fill-opacity:1;stroke-width:0.231509"
             id="rect1-3-4"
             width="28"
             height="28"
             x="2"
             y="2"
             rx="6" /><rect
             style="opacity:0.886496;fill:url(#radialGradient8);fill-opacity:1;stroke-width:0.0933333"
             id="rect7"
             width="28"
             height="28"
             x="2"
             y="2"
             rx="6" /><rect
             style="opacity:0.886496;fill:url(#linearGradient10);fill-opacity:1;stroke-width:0.0896552"
             id="rect8"
             width="26"
             height="15.241382"
             x="3"
             y="3"
             rx="5.3793101" /></g></g></g><g
       style="fill:#ffffff;fill-opacity:1"
       id="g6"
       transform="matrix(0.025,0,0,0.025,-33.598983,-13.061882)" /><g
       style="fill:#ffffff;fill-opacity:1"
       id="g22"
       transform="matrix(0.025,0,0,0.025,4,29.35)"><path
         d="m 480,-173.85 -30.31,-27.38 q -97.92,-89.46 -162,-153.15 -64.07,-63.7 -101.15,-112.35 -37.08,-48.65 -51.81,-88.04 Q 120,-594.15 120,-634 120,-710.31 171.85,-762.15 223.69,-814 300,-814 q 52.77,0 99,27 46.23,27 81,78.54 34.77,-51.54 81,-78.54 46.23,-27 99,-27 76.31,0 128.15,51.85 51.85,51.84 51.85,128.15 0,39.85 -14.73,79.23 -14.73,39.39 -51.81,88.04 -37.08,48.65 -100.77,112.35 -63.69,63.69 -162.38,153.15 z"
         id="path1"
         style="fill:#ffffff;fill-opacity:1" /></g></g></svg>
