<?xml version="1.0" encoding="UTF-8" standalone="no"?>
<!-- Created with Inkscape (http://www.inkscape.org/) -->

<svg
   width="31.999998mm"
   height="31.999998mm"
   viewBox="0 0 31.999999 31.999999"
   version="1.1"
   id="svg1"
   xml:space="preserve"
   xmlns:xlink="http://www.w3.org/1999/xlink"
   xmlns="http://www.w3.org/2000/svg"
   xmlns:svg="http://www.w3.org/2000/svg"><defs
     id="defs1"><linearGradient
       id="linearGradient1"><stop
         style="stop-color:#ffffff;stop-opacity:1;"
         offset="0"
         id="stop1" /><stop
         style="stop-color:#964c67;stop-opacity:1;"
         offset="0.5"
         id="stop5" /><stop
         style="stop-color:#532d46;stop-opacity:1;"
         offset="0.75"
         id="stop6" /><stop
         style="stop-color:#e892b0;stop-opacity:1;"
         offset="1"
         id="stop2" /></linearGradient><linearGradient
       id="linearGradient8"><stop
         style="stop-color:#ffffff;stop-opacity:0.13333334;"
         offset="0"
         id="stop9" /><stop
         style="stop-color:#ffffff;stop-opacity:0;"
         offset="1"
         id="stop10" /></linearGradient><linearGradient
       id="linearGradient7"><stop
         style="stop-color:#ffffff;stop-opacity:0.13333334;"
         offset="0"
         id="stop7" /><stop
         style="stop-color:#ffffff;stop-opacity:0;"
         offset="1"
         id="stop8" /></linearGradient><radialGradient
       xlink:href="#linearGradient7"
       id="radialGradient8"
       cx="16"
       cy="30.000002"
       fx="16"
       fy="30.000002"
       r="14"
       gradientUnits="userSpaceOnUse"
       gradientTransform="matrix(1.0802874,0,0,1.0802874,-1.284598,-1.284598)" /><linearGradient
       xlink:href="#linearGradient8"
       id="linearGradient10"
       x1="16"
       y1="-2.3793087"
       x2="16"
       y2="23.620691"
       gradientUnits="userSpaceOnUse"
       gradientTransform="matrix(1.1633864,0,0,1.1633864,-2.6141825,-2.6141825)" /><radialGradient
       xlink:href="#linearGradient3"
       id="radialGradient4"
       cx="15.878379"
       cy="16.094595"
       fx="15.878379"
       fy="16.094595"
       r="13.5"
       gradientUnits="userSpaceOnUse"
       gradientTransform="matrix(0.88888886,0,0,0.22222222,1.8858859,1.4234233)" /><linearGradient
       id="linearGradient3"><stop
         style="stop-color:#ffffff;stop-opacity:0.13333334;"
         offset="0"
         id="stop3" /><stop
         style="stop-color:#ffffff;stop-opacity:0;"
         offset="1"
         id="stop4" /></linearGradient><linearGradient
       xlink:href="#linearGradient1"
       id="linearGradient2"
       x1="16"
       y1="0.87597668"
       x2="16"
       y2="31.124023"
       gradientUnits="userSpaceOnUse" /></defs><g
     id="layer1"
     transform="matrix(0.99179958,0,0,0.99179958,0.13120665,0.13120665)"><g
       id="layer1-6"><g
         id="layer1-2"><g
           id="layer1-5"><rect
             style="fill:#808080;fill-opacity:1;stroke:#666666;stroke-width:0.264583;stroke-opacity:1"
             id="rect1"
             width="32"
             height="32"
             x="0"
             y="0"
             rx="4" /><rect
             style="fill:url(#linearGradient2);fill-opacity:1;stroke-width:0.250096"
             id="rect1-3-4"
             width="30.248047"
             height="30.248047"
             x="0.87597674"
             y="0.87597674"
             rx="3.0248046" /><rect
             style="opacity:0.886496;fill:url(#radialGradient8);fill-opacity:1;stroke-width:0.100827"
             id="rect7"
             width="30.248047"
             height="30.248047"
             x="0.87597674"
             y="0.87597674"
             rx="2.1605747" /><rect
             style="opacity:0.886496;fill:url(#linearGradient10);fill-opacity:1;stroke-width:0.104303"
             id="rect8"
             width="30.248047"
             height="17.731617"
             x="0.87597674"
             y="0.87597674"
             rx="3.0248046" /></g></g></g><path
       d="m 16,24.066147 q -1.691288,0 -3.15955,-0.63191 -1.468262,-0.63191 -2.555519,-1.719167 -1.0872562,-1.087257 -1.7191667,-2.555519 -0.63191,-1.468262 -0.63191,-3.15955 0,-1.393919 0.427469,-2.629861 0.427468,-1.235942 1.2080635,-2.25815 0.29737,-0.390297 0.7341302,-0.390297 0.436761,0 0.771302,0.278784 0.33454,0.278784 0.436761,0.752716 0.102221,0.473933 -0.269491,1.031501 -0.46464,0.687667 -0.715545,1.49614 -0.250906,0.808473 -0.250906,1.719167 0,2.416126 1.654118,4.070244 1.654117,1.654118 4.070244,1.654118 2.416127,0 4.070244,-1.654118 1.654118,-1.654118 1.654118,-4.070244 0,-0.910694 -0.250906,-1.719167 -0.250905,-0.808473 -0.715545,-1.49614 -0.371712,-0.557568 -0.269491,-1.031501 0.102221,-0.473932 0.436762,-0.752716 0.33454,-0.278784 0.771302,-0.278784 0.436761,0 0.73413,0.390297 0.780595,1.022208 1.208064,2.25815 0.427468,1.235942 0.427468,2.629861 0,1.691288 -0.63191,3.15955 -0.63191,1.468262 -1.719167,2.555519 -1.087257,1.087257 -2.555518,1.719167 Q 17.691289,24.066147 16,24.066147 Z M 15.172941,16.82706 Q 14.829108,16.483226 14.829108,16.000001 V 9.1047465 q 0,-0.4832253 0.343833,-0.8270587 Q 15.516775,7.9338543 16,7.9338543 q 0.483226,0 0.827059,0.3438335 0.343833,0.3438334 0.343833,0.8270587 v 6.8952545 q 0,0.483225 -0.343833,0.827059 Q 16.483226,17.170893 16,17.170893 q -0.483225,0 -0.827059,-0.343833 z"
       id="path1"
       style="fill:#ffffff;stroke-width:0.0185856" /><rect
       style="opacity:0.886496;fill:url(#radialGradient4);fill-opacity:1;stroke:none;stroke-width:0.444444"
       id="rect2"
       width="24"
       height="6"
       x="4"
       y="2"
       rx="5.3333335" /></g></svg>
