<?xml version="1.0" encoding="UTF-8" standalone="no"?>
<!-- Created with Inkscape (http://www.inkscape.org/) -->

<svg
   width="32.264584mm"
   height="32.264584mm"
   viewBox="0 0 32.264584 32.264584"
   version="1.1"
   id="svg1"
   xml:space="preserve"
   xmlns:xlink="http://www.w3.org/1999/xlink"
   xmlns="http://www.w3.org/2000/svg"
   xmlns:svg="http://www.w3.org/2000/svg"><defs
     id="defs1"><linearGradient
       id="linearGradient8"><stop
         style="stop-color:#ffffff;stop-opacity:1;"
         offset="0"
         id="stop9" /><stop
         style="stop-color:#ffffff;stop-opacity:0;"
         offset="1"
         id="stop10" /></linearGradient><linearGradient
       id="linearGradient7"><stop
         style="stop-color:#ffffff;stop-opacity:0.66666669;"
         offset="0"
         id="stop7" /><stop
         style="stop-color:#ffffff;stop-opacity:0;"
         offset="1"
         id="stop8" /></linearGradient><radialGradient
       xlink:href="#linearGradient7"
       id="radialGradient8"
       cx="16"
       cy="30.000002"
       fx="16"
       fy="30.000002"
       r="14"
       gradientUnits="userSpaceOnUse" /><linearGradient
       xlink:href="#linearGradient8"
       id="linearGradient10"
       x1="16"
       y1="-2.3793087"
       x2="16"
       y2="23.620691"
       gradientUnits="userSpaceOnUse"
       gradientTransform="matrix(1.0769231,0,0,1.0769231,-1.2307692,-1.2307692)" /><radialGradient
       xlink:href="#linearGradient3"
       id="radialGradient4"
       cx="15.878379"
       cy="16.094595"
       fx="15.878379"
       fy="16.094595"
       r="13.5"
       gradientUnits="userSpaceOnUse"
       gradientTransform="matrix(0.88888886,0,0,0.22222222,1.8858859,1.4234233)" /><linearGradient
       id="linearGradient3"><stop
         style="stop-color:#ffffff;stop-opacity:0.45882353;"
         offset="0"
         id="stop3" /><stop
         style="stop-color:#ffffff;stop-opacity:0;"
         offset="1"
         id="stop4" /></linearGradient></defs><g
     id="layer1"
     transform="translate(0.1322915,0.1322915)"><rect
       style="fill:#ffffff;fill-opacity:1;stroke-width:0.231509"
       id="rect1-3"
       width="28"
       height="28"
       x="2"
       y="2" /><g
       id="layer1-6"><rect
         style="fill:#ffffff;fill-opacity:1;stroke-width:0.231509"
         id="rect1-3-1"
         width="28"
         height="28"
         x="2"
         y="2" /><g
         id="layer1-2"><g
           id="layer1-5"><rect
             style="fill:#808080;fill-opacity:1;stroke:#666666;stroke-width:0.264583;stroke-opacity:1"
             id="rect1"
             width="32"
             height="32"
             x="0"
             y="0"
             rx="4" /><rect
             style="fill:#930c18;fill-opacity:1;stroke-width:0.231509"
             id="rect1-3-4"
             width="28"
             height="28"
             x="2"
             y="2"
             rx="2" /><rect
             style="opacity:0.886496;fill:url(#radialGradient8);fill-opacity:1;stroke-width:0.0933333"
             id="rect7"
             width="28"
             height="28"
             x="2"
             y="2"
             rx="2" /><rect
             style="opacity:0.886496;fill:url(#linearGradient10);fill-opacity:1;stroke-width:0.0965518"
             id="rect8"
             width="28"
             height="16.413795"
             x="2"
             y="2"
             rx="2" /></g></g></g><g
       style="fill:#ffffff;fill-opacity:1"
       id="g6"
       transform="matrix(0.025,0,0,0.025,-33.598983,-13.061882)" /><g
       style="fill:#ffffff"
       id="g22"
       transform="matrix(0.02447552,0,0,0.02447552,4.2517491,27.748248)"><path
         d="m 480,-392 -180,180 q -18,18 -44,18 -26,0 -44,-18 -18,-18 -18,-44 0,-26 18,-44 L 392,-480 212,-660 q -18,-18 -18,-44 0,-26 18,-44 18,-18 44,-18 26,0 44,18 l 180,180 180,-180 q 18,-18 44,-18 26,0 44,18 18,18 18,44 0,26 -18,44 l -180,180 180,180 q 18,18 18,44 0,26 -18,44 -18,18 -44,18 -26,0 -44,-18 z"
         id="path1-2" /></g><rect
       style="opacity:0.886496;fill:url(#radialGradient4);fill-opacity:1;stroke:none;stroke-width:0.444444"
       id="rect2"
       width="24"
       height="6"
       x="4"
       y="2"
       rx="5.3333335" /></g></svg>
